<svg width="22.000000" height="22.000000" viewBox="0 0 22 22" fill="none" xmlns="http://www.w3.org/2000/svg" xmlns:xlink="http://www.w3.org/1999/xlink">
	<desc>
			Created with Pixso.
	</desc>
	<defs>
		<clipPath id="clip70_2838">
			<rect id="ph:facebook-logo" width="22.000000" height="22.000000" fill="white" fill-opacity="0"/>
		</clipPath>
	</defs>
	<rect id="ph:facebook-logo" width="22.000000" height="22.000000" fill="#FFFFFF" fill-opacity="0"/>
	<g clip-path="url(#clip70_2838)">
		<path id="Vector" d="M11 2.0625C9.2323 2.0625 7.50439 2.58691 6.03455 3.56885C4.56482 4.55078 3.41931 5.94678 2.7428 7.57959C2.06641 9.21289 1.8894 11.0098 2.23425 12.7437C2.5791 14.4775 3.4303 16.0698 4.6803 17.3198C5.93018 18.5698 7.52271 19.4209 9.25635 19.7656C10.9901 20.1108 12.7871 19.9336 14.4203 19.2573C16.0533 18.5806 17.4492 17.4351 18.4313 15.9653C19.4133 14.4956 19.9375 12.7676 19.9375 11C19.9351 8.63037 18.9926 6.3584 17.317 4.68311C15.6415 3.00732 13.3696 2.06494 11 2.0625ZM11.6875 18.5308L11.6875 13.0625L13.75 13.0625C13.9324 13.0625 14.1072 12.9902 14.2361 12.8613C14.3651 12.7324 14.4375 12.5571 14.4375 12.375C14.4375 12.1929 14.3651 12.0176 14.2361 11.8887C14.1072 11.7598 13.9324 11.6875 13.75 11.6875L11.6875 11.6875L11.6875 9.625C11.6875 9.26025 11.8324 8.91064 12.0902 8.65283C12.3481 8.39502 12.6979 8.25 13.0625 8.25L14.4375 8.25C14.6199 8.25 14.7947 8.17773 14.9236 8.04883C15.0526 7.91992 15.125 7.74463 15.125 7.5625C15.125 7.38037 15.0526 7.20508 14.9236 7.07617C14.7947 6.94727 14.6199 6.875 14.4375 6.875L13.0625 6.875C12.3331 6.875 11.6337 7.16455 11.1179 7.68066C10.6023 8.19629 10.3125 8.89551 10.3125 9.625L10.3125 11.6875L8.25 11.6875C8.06763 11.6875 7.89282 11.7598 7.76392 11.8887C7.63489 12.0176 7.5625 12.1929 7.5625 12.375C7.5625 12.5571 7.63489 12.7324 7.76392 12.8613C7.89282 12.9902 8.06763 13.0625 8.25 13.0625L10.3125 13.0625L10.3125 18.5308C8.37439 18.354 6.57922 17.4365 5.30017 15.9697C4.02112 14.5029 3.35681 12.5996 3.44531 10.6553C3.53394 8.71143 4.36853 6.87598 5.77563 5.53174C7.18262 4.1875 9.05383 3.43701 11 3.43701C12.9462 3.43701 14.8174 4.1875 16.2244 5.53174C17.6315 6.87598 18.4661 8.71143 18.5547 10.6553C18.6432 12.5996 17.9789 14.5029 16.6998 15.9697C15.4208 17.4365 13.6256 18.354 11.6875 18.5308Z" fill="#000000" fill-opacity="1.000000" fill-rule="nonzero"/>
	</g>
</svg>
