<svg width="22.000000" height="22.000000" viewBox="0 0 22 22" fill="none" xmlns="http://www.w3.org/2000/svg" xmlns:xlink="http://www.w3.org/1999/xlink">
	<desc>
			Created with Pixso.
	</desc>
	<defs>
		<clipPath id="clip70_2842">
			<rect id="typcn:social-linkedin-circular" width="22.000000" height="22.000000" fill="white" fill-opacity="0"/>
		</clipPath>
	</defs>
	<rect id="typcn:social-linkedin-circular" width="22.000000" height="22.000000" fill="#FFFFFF" fill-opacity="0"/>
	<g clip-path="url(#clip70_2842)">
		<path id="Vector" d="M9.1969 14.0249L7.73022 14.0249L7.73022 9.25928L9.1969 9.25928L9.1969 14.0249ZM8.46362 8.64795C7.93469 8.64795 7.6698 8.40332 7.6698 7.91455C7.66809 7.81641 7.68774 7.71924 7.72729 7.62939C7.76685 7.53955 7.82544 7.45947 7.89893 7.39453C8.05176 7.25195 8.25464 7.17529 8.46362 7.18115C8.99255 7.18115 9.25745 7.42676 9.25745 7.91553C9.25745 8.40381 8.99341 8.64795 8.46362 8.64795ZM14.6364 14.0249L13.1395 14.0249L13.1395 11.3667C13.1395 10.6748 12.8939 10.3281 12.4053 10.3281C12.0184 10.3281 11.7645 10.5215 11.6407 10.9082C11.6013 10.9697 11.5802 11.0928 11.5802 11.2749L11.5802 14.0249L10.0834 14.0249L10.0834 10.7866C10.0834 10.0532 10.0724 9.54443 10.0531 9.25928L11.3364 9.25928L11.4281 9.8999C11.7645 9.39014 12.2531 9.13623 12.925 9.13623C13.4356 9.13623 13.8472 9.31445 14.1625 9.6709C14.4797 10.0273 14.6373 10.5415 14.6373 11.2144L14.6373 14.0249L14.6364 14.0249ZM11 19.25C6.45056 19.25 2.75 15.5493 2.75 11C2.75 6.45068 6.45056 2.75 11 2.75C15.5494 2.75 19.25 6.45068 19.25 11C19.25 15.5493 15.5494 19.25 11 19.25ZM11 4.5835C7.46252 4.5835 4.58337 7.4624 4.58337 11C4.58337 14.5376 7.46252 17.4165 11 17.4165C14.5374 17.4165 17.4167 14.5376 17.4167 11C17.4167 7.4624 14.5374 4.5835 11 4.5835Z" fill="#000000" fill-opacity="1.000000" fill-rule="nonzero"/>
	</g>
</svg>
